# File created by Blade
# Date/Time:  Wed Jan 21 14:58:10 2015
# Frame Rate: 120.000 fps
#------------------------------------------------------
:FULLY-SPECIFIED
:DEGREES
889
root 17.401707 35.485183 -22.324809 -173.262144 -30.072696 -182.769755
Spine -15.197059 36.436518 -8.881054
Head 11.645560 6.763016 3.860779
LeftShoulder -8.835960 -21.552462 17.033365
LeftArm -9.209151 5.776715 -14.109928
LeftForeArm 6.387825 -0.000000 -3.970628
LeftHand -10.903605 -0.000000 -2.041164
LeftHandThumb1 -26.253704 0.000000 33.147579
RightShoulder 1.753101 -1.094322 -13.653849
RightArm 27.557238 15.603608 23.633354
RightForeArm -34.862938 -0.000000 6.682651
RightHand -6.820297 -0.000000 6.615125
RightHandThumb1 -24.326973 -0.000000 -32.862282
LeftUpLeg -5.848084 -10.182120 3.086730
LeftLeg -2.667797 -0.000000 0.000000
LeftFoot -14.408374 18.548159 -14.473777
LeftToeBase 26.743187 -0.000000 -0.000000
RightUpLeg 5.851225 -19.790469 -4.285329
RightLeg -2.729958 -0.000000 0.000000
RightFoot -25.483605 -29.417168 20.742733
RightToeBase 20.672707 -0.000000 -0.000000
890
root 17.425275 35.488969 -22.332601 -173.345144 -29.371192 -182.580220
Spine -15.036753 35.421367 -8.565286
Head 11.659253 6.631835 3.947923
LeftShoulder -8.645123 -21.545787 17.018860
LeftArm -8.835433 5.731643 -13.891704
LeftForeArm 6.523947 -0.000000 -3.997101
LeftHand -10.770843 -0.000000 -2.176826
LeftHandThumb1 -26.253704 0.000000 33.147579
RightShoulder 1.523274 -1.146541 -13.554689
RightArm 27.171927 15.756792 23.463758
RightForeArm -34.844718 -0.000000 6.583162
RightHand -6.841123 0.000000 6.425553
RightHandThumb1 -24.326973 -0.000000 -32.862282
LeftUpLeg -5.663415 -9.728894 3.216504
LeftLeg -2.827583 -0.000000 0.000000
LeftFoot -14.489474 18.814856 -14.439939
LeftToeBase 26.777668 -0.000000 -0.000000
RightUpLeg 5.695250 -19.571945 -4.162271
RightLeg -2.716908 -0.000000 0.000000
RightFoot -25.328446 -29.050850 20.778943
RightToeBase 20.663886 -0.000000 -0.000000
891
root 17.447642 35.491894 -22.339790 -173.435818 -28.617868 -182.404981
Spine -14.865820 34.450055 -8.264097
Head 11.687096 6.551446 4.050987
LeftShoulder -8.439802 -21.541489 17.021740
LeftArm -8.481326 5.685514 -13.691332
LeftForeArm 6.660196 -0.000000 -3.999800
LeftHand -10.578599 -0.000000 -2.141125
LeftHandThumb1 -26.253704 0.000000 33.147579
RightShoulder 1.313419 -1.172487 -13.438166
RightArm 26.797273 15.893737 23.247932
RightForeArm -34.650220 -0.000000 6.469401
RightHand -6.726401 -0.000000 6.504661
RightHandThumb1 -24.326973 -0.000000 -32.862282
LeftUpLeg -5.435488 -9.254932 3.327372
LeftLeg -3.012830 -0.000000 0.000000
LeftFoot -14.581452 19.104242 -14.429408
LeftToeBase 26.783901 -0.000000 -0.000000
RightUpLeg 5.527274 -19.195158 -4.046718
RightLeg -2.673756 -0.000000 0.000000
RightFoot -25.204622 -28.787388 20.764533
RightToeBase 20.654790 -0.000000 -0.000000
892
root 17.472718 35.494502 -22.345009 -173.523754 -27.910352 -182.221704
Spine -14.684993 33.448768 -7.960176
Head 11.663546 6.444832 4.154318
LeftShoulder -8.174111 -21.647846 17.015008
LeftArm -8.222117 5.830116 -13.478347
LeftForeArm 6.658677 -0.000000 -3.969091
LeftHand -10.712315 -0.000000 -2.165693
LeftHandThumb1 -26.253704 0.000000 33.147579
RightShoulder 1.037906 -1.288157 -13.317249
RightArm 26.485051 15.922516 22.949169
RightForeArm -34.233210 0.000000 6.443576
RightHand -6.827771 -0.000000 6.701690
RightHandThumb1 -24.326973 -0.000000 -32.862282
LeftUpLeg -5.239018 -8.767241 3.452833
LeftLeg -3.169787 -0.000000 0.000000
LeftFoot -14.661329 19.342549 -14.398314
LeftToeBase 26.735249 -0.000000 -0.000000
RightUpLeg 5.366178 -18.933800 -3.918344
RightLeg -2.646174 -0.000000 0.000000
RightFoot -25.041041 -28.425013 20.727100
RightToeBase 20.655462 -0.000000 -0.000000
893
root 17.496216 35.497132 -22.351738 -173.602828 -27.242083 -182.050708
Spine -14.490163 32.352482 -7.633721
Head 11.637660 6.444032 4.221970
LeftShoulder -7.929498 -21.684184 16.977175
LeftArm -7.990052 5.970902 -13.215347
LeftForeArm 6.676512 -0.000000 -3.906033
LeftHand -10.732221 -0.000000 -2.201378
LeftHandThumb1 -26.253704 0.000000 33.147579
RightShoulder 0.826104 -1.386464 -13.217708
RightArm 26.225980 16.047427 22.756732
RightForeArm -34.426981 0.000000 6.287599
RightHand -6.810449 0.000000 6.687267
RightHandThumb1 -24.326973 -0.000000 -32.862282
LeftUpLeg -5.031149 -8.356165 3.578390
LeftLeg -3.353794 -0.000000 0.000000
LeftFoot -14.724138 19.598919 -14.381425
LeftToeBase 26.647582 -0.000000 -0.000000
RightUpLeg 5.217304 -18.700027 -3.795289
RightLeg -2.618264 -0.000000 0.000000
RightFoot -24.893853 -28.112785 20.666745
RightToeBase 20.704787 -0.000000 -0.000000
